<mxfile host="app.diagrams.net" agent="Mozilla/5.0 (Macintosh; Intel Mac OS X 10_15_7) AppleWebKit/537.36 (KHTML, like Gecko) Chrome/135.0.0.0 Safari/537.36" version="26.2.10">
  <diagram name="Page-1" id="shPMoPb6foDGOrGKqs8L">
    <mxGraphModel dx="1200" dy="670" grid="1" gridSize="10" guides="1" tooltips="1" connect="1" arrows="1" fold="1" page="1" pageScale="1" pageWidth="850" pageHeight="1100" math="0" shadow="0">
      <root>
        <mxCell id="0" />
        <mxCell id="1" parent="0" />
        <mxCell id="WzCFIglIIp8xGvakGaZ_-9" style="edgeStyle=orthogonalEdgeStyle;rounded=0;orthogonalLoop=1;jettySize=auto;html=1;entryX=0.5;entryY=0;entryDx=0;entryDy=0;" edge="1" parent="1" source="WzCFIglIIp8xGvakGaZ_-1" target="WzCFIglIIp8xGvakGaZ_-8">
          <mxGeometry relative="1" as="geometry" />
        </mxCell>
        <mxCell id="WzCFIglIIp8xGvakGaZ_-10" value="&lt;font style=&quot;font-size: 15px;&quot;&gt;Business chooses &quot;Certifications&quot;&lt;/font&gt;" style="edgeLabel;html=1;align=center;verticalAlign=middle;resizable=0;points=[];" vertex="1" connectable="0" parent="WzCFIglIIp8xGvakGaZ_-9">
          <mxGeometry x="-0.0522" y="2" relative="1" as="geometry">
            <mxPoint as="offset" />
          </mxGeometry>
        </mxCell>
        <mxCell id="WzCFIglIIp8xGvakGaZ_-1" value="" style="rounded=0;whiteSpace=wrap;html=1;" vertex="1" parent="1">
          <mxGeometry x="10" y="50" width="440" height="240" as="geometry" />
        </mxCell>
        <mxCell id="WzCFIglIIp8xGvakGaZ_-2" value="&lt;font style=&quot;font-size: 20px;&quot;&gt;Dashboard&lt;/font&gt;" style="text;html=1;align=center;verticalAlign=middle;whiteSpace=wrap;rounded=0;" vertex="1" parent="1">
          <mxGeometry x="30" y="20" width="60" height="30" as="geometry" />
        </mxCell>
        <mxCell id="WzCFIglIIp8xGvakGaZ_-3" value="&lt;font style=&quot;font-size: 18px;&quot;&gt;Certifications&lt;/font&gt;" style="rounded=0;whiteSpace=wrap;html=1;" vertex="1" parent="1">
          <mxGeometry x="30" y="130" width="200" height="40" as="geometry" />
        </mxCell>
        <mxCell id="WzCFIglIIp8xGvakGaZ_-5" value="&lt;font style=&quot;font-size: 18px;&quot;&gt;Performance Stats&lt;/font&gt;" style="rounded=0;whiteSpace=wrap;html=1;" vertex="1" parent="1">
          <mxGeometry x="30" y="80" width="200" height="37.5" as="geometry" />
        </mxCell>
        <mxCell id="WzCFIglIIp8xGvakGaZ_-6" value="&lt;font style=&quot;font-size: 18px;&quot;&gt;Reviews&lt;/font&gt;" style="rounded=0;whiteSpace=wrap;html=1;" vertex="1" parent="1">
          <mxGeometry x="30" y="180" width="200" height="40" as="geometry" />
        </mxCell>
        <mxCell id="WzCFIglIIp8xGvakGaZ_-7" value="&lt;font style=&quot;font-size: 18px;&quot;&gt;...&lt;/font&gt;" style="rounded=0;whiteSpace=wrap;html=1;" vertex="1" parent="1">
          <mxGeometry x="30" y="235" width="200" height="40" as="geometry" />
        </mxCell>
        <mxCell id="WzCFIglIIp8xGvakGaZ_-8" value="" style="rounded=0;whiteSpace=wrap;html=1;" vertex="1" parent="1">
          <mxGeometry x="10" y="350" width="440" height="240" as="geometry" />
        </mxCell>
        <mxCell id="WzCFIglIIp8xGvakGaZ_-11" value="" style="rounded=0;whiteSpace=wrap;html=1;" vertex="1" parent="1">
          <mxGeometry x="240" y="80" width="200" height="195" as="geometry" />
        </mxCell>
        <mxCell id="WzCFIglIIp8xGvakGaZ_-12" value="&lt;font style=&quot;font-size: 20px;&quot;&gt;Last 30 days&lt;/font&gt;" style="text;html=1;align=center;verticalAlign=middle;whiteSpace=wrap;rounded=0;" vertex="1" parent="1">
          <mxGeometry x="272.5" y="88.75" width="135" height="20" as="geometry" />
        </mxCell>
        <mxCell id="WzCFIglIIp8xGvakGaZ_-24" value="&lt;font style=&quot;font-size: 20px;&quot;&gt;Certifications&lt;/font&gt;" style="text;html=1;align=center;verticalAlign=middle;whiteSpace=wrap;rounded=0;" vertex="1" parent="1">
          <mxGeometry x="40" y="320" width="60" height="30" as="geometry" />
        </mxCell>
        <mxCell id="WzCFIglIIp8xGvakGaZ_-25" value="&lt;font style=&quot;font-size: 20px;&quot;&gt;Certifications&lt;/font&gt;" style="text;html=1;align=center;verticalAlign=middle;whiteSpace=wrap;rounded=0;" vertex="1" parent="1">
          <mxGeometry x="200" y="360" width="60" height="30" as="geometry" />
        </mxCell>
        <mxCell id="WzCFIglIIp8xGvakGaZ_-26" value="&lt;font style=&quot;font-size: 20px;&quot;&gt;Dashboard&lt;/font&gt;" style="text;html=1;align=center;verticalAlign=middle;whiteSpace=wrap;rounded=0;" vertex="1" parent="1">
          <mxGeometry x="190" y="50" width="60" height="30" as="geometry" />
        </mxCell>
        <mxCell id="WzCFIglIIp8xGvakGaZ_-27" value="" style="endArrow=none;html=1;rounded=0;" edge="1" parent="1">
          <mxGeometry width="50" height="50" relative="1" as="geometry">
            <mxPoint x="272.5" y="235" as="sourcePoint" />
            <mxPoint x="392.5" y="235" as="targetPoint" />
            <Array as="points">
              <mxPoint x="322.5" y="225" />
              <mxPoint x="362.5" y="155" />
            </Array>
          </mxGeometry>
        </mxCell>
        <mxCell id="WzCFIglIIp8xGvakGaZ_-28" value="&lt;font style=&quot;font-size: 20px;&quot;&gt;Add&lt;/font&gt;" style="rounded=0;whiteSpace=wrap;html=1;" vertex="1" parent="1">
          <mxGeometry x="330" y="405" width="100" height="40" as="geometry" />
        </mxCell>
        <mxCell id="WzCFIglIIp8xGvakGaZ_-30" value="" style="rounded=0;whiteSpace=wrap;html=1;" vertex="1" parent="1">
          <mxGeometry x="570" y="50" width="440" height="240" as="geometry" />
        </mxCell>
        <mxCell id="WzCFIglIIp8xGvakGaZ_-35" value="&lt;font style=&quot;font-size: 20px;&quot;&gt;Add new&lt;/font&gt;" style="text;html=1;align=center;verticalAlign=middle;whiteSpace=wrap;rounded=0;" vertex="1" parent="1">
          <mxGeometry x="730" y="58.75" width="140" height="30" as="geometry" />
        </mxCell>
        <mxCell id="WzCFIglIIp8xGvakGaZ_-36" value="&lt;font style=&quot;font-size: 20px;&quot;&gt;Save&lt;/font&gt;" style="rounded=0;whiteSpace=wrap;html=1;" vertex="1" parent="1">
          <mxGeometry x="880" y="240" width="100" height="40" as="geometry" />
        </mxCell>
        <mxCell id="WzCFIglIIp8xGvakGaZ_-37" value="&lt;font style=&quot;font-size: 20px;&quot;&gt;Add new certification&lt;/font&gt;" style="text;html=1;align=center;verticalAlign=middle;whiteSpace=wrap;rounded=0;" vertex="1" parent="1">
          <mxGeometry x="570" y="20" width="210" height="30" as="geometry" />
        </mxCell>
        <mxCell id="WzCFIglIIp8xGvakGaZ_-38" style="edgeStyle=orthogonalEdgeStyle;rounded=0;orthogonalLoop=1;jettySize=auto;html=1;entryX=-0.002;entryY=0.446;entryDx=0;entryDy=0;entryPerimeter=0;" edge="1" parent="1" source="WzCFIglIIp8xGvakGaZ_-8" target="WzCFIglIIp8xGvakGaZ_-30">
          <mxGeometry relative="1" as="geometry" />
        </mxCell>
        <mxCell id="WzCFIglIIp8xGvakGaZ_-39" value="&lt;font style=&quot;font-size: 15px;&quot;&gt;Business&amp;nbsp;&lt;/font&gt;&lt;div&gt;&lt;font style=&quot;font-size: 15px;&quot;&gt;clicks &quot;Add&quot;&lt;/font&gt;&lt;/div&gt;" style="edgeLabel;html=1;align=center;verticalAlign=middle;resizable=0;points=[];" vertex="1" connectable="0" parent="WzCFIglIIp8xGvakGaZ_-38">
          <mxGeometry x="0.0709" y="-1" relative="1" as="geometry">
            <mxPoint as="offset" />
          </mxGeometry>
        </mxCell>
        <mxCell id="WzCFIglIIp8xGvakGaZ_-40" value="&lt;font style=&quot;font-size: 15px;&quot;&gt;&lt;b&gt;Name&lt;/b&gt;:&amp;nbsp; Enter Name&lt;/font&gt;" style="text;html=1;align=left;verticalAlign=middle;whiteSpace=wrap;rounded=0;" vertex="1" parent="1">
          <mxGeometry x="590" y="78.75" width="200" height="30" as="geometry" />
        </mxCell>
        <mxCell id="WzCFIglIIp8xGvakGaZ_-41" value="&lt;font style=&quot;font-size: 15px;&quot;&gt;&lt;b&gt;Date of issue&lt;/b&gt;: Enter date&lt;/font&gt;" style="text;html=1;align=left;verticalAlign=middle;whiteSpace=wrap;rounded=0;" vertex="1" parent="1">
          <mxGeometry x="590" y="104.38" width="240" height="30" as="geometry" />
        </mxCell>
        <mxCell id="WzCFIglIIp8xGvakGaZ_-42" value="&lt;font style=&quot;font-size: 15px;&quot;&gt;&lt;b&gt;Organization&lt;/b&gt;: Enter organizaion&lt;/font&gt;" style="text;html=1;align=left;verticalAlign=middle;whiteSpace=wrap;rounded=0;" vertex="1" parent="1">
          <mxGeometry x="590" y="130" width="220" height="30" as="geometry" />
        </mxCell>
        <mxCell id="WzCFIglIIp8xGvakGaZ_-43" value="&lt;span style=&quot;font-size: 15px;&quot;&gt;&lt;b&gt;Select services&lt;/b&gt;&lt;/span&gt;" style="text;html=1;align=left;verticalAlign=middle;whiteSpace=wrap;rounded=0;" vertex="1" parent="1">
          <mxGeometry x="590" y="155" width="220" height="30" as="geometry" />
        </mxCell>
        <mxCell id="WzCFIglIIp8xGvakGaZ_-45" value="&lt;span style=&quot;font-size: 15px;&quot;&gt;Service 1&lt;/span&gt;" style="text;html=1;align=left;verticalAlign=middle;whiteSpace=wrap;rounded=0;" vertex="1" parent="1">
          <mxGeometry x="610" y="180" width="200" height="30" as="geometry" />
        </mxCell>
        <mxCell id="WzCFIglIIp8xGvakGaZ_-46" value="&lt;span style=&quot;font-size: 15px;&quot;&gt;Service 2&lt;/span&gt;" style="text;html=1;align=left;verticalAlign=middle;whiteSpace=wrap;rounded=0;" vertex="1" parent="1">
          <mxGeometry x="610" y="210" width="200" height="30" as="geometry" />
        </mxCell>
        <mxCell id="WzCFIglIIp8xGvakGaZ_-47" value="" style="rounded=0;whiteSpace=wrap;html=1;" vertex="1" parent="1">
          <mxGeometry x="590" y="185" width="20" height="20" as="geometry" />
        </mxCell>
        <mxCell id="WzCFIglIIp8xGvakGaZ_-48" value="" style="rounded=0;whiteSpace=wrap;html=1;" vertex="1" parent="1">
          <mxGeometry x="590" y="215" width="20" height="20" as="geometry" />
        </mxCell>
        <mxCell id="WzCFIglIIp8xGvakGaZ_-50" value="&lt;span style=&quot;font-size: 15px;&quot;&gt;Service 3&lt;/span&gt;" style="text;html=1;align=left;verticalAlign=middle;whiteSpace=wrap;rounded=0;" vertex="1" parent="1">
          <mxGeometry x="610" y="240" width="200" height="30" as="geometry" />
        </mxCell>
        <mxCell id="WzCFIglIIp8xGvakGaZ_-51" value="" style="rounded=0;whiteSpace=wrap;html=1;" vertex="1" parent="1">
          <mxGeometry x="590" y="245" width="20" height="20" as="geometry" />
        </mxCell>
        <mxCell id="WzCFIglIIp8xGvakGaZ_-53" value="" style="rounded=0;whiteSpace=wrap;html=1;" vertex="1" parent="1">
          <mxGeometry x="570" y="350" width="440" height="240" as="geometry" />
        </mxCell>
        <mxCell id="WzCFIglIIp8xGvakGaZ_-54" value="Certification 1: Service 1, Service 2..." style="rounded=0;whiteSpace=wrap;html=1;" vertex="1" parent="1">
          <mxGeometry x="580" y="390" width="230" height="30" as="geometry" />
        </mxCell>
        <mxCell id="WzCFIglIIp8xGvakGaZ_-55" value="Certification 2: Service 1, Service 5" style="rounded=0;whiteSpace=wrap;html=1;" vertex="1" parent="1">
          <mxGeometry x="580" y="430" width="230" height="30" as="geometry" />
        </mxCell>
        <mxCell id="WzCFIglIIp8xGvakGaZ_-56" value="Certification 3: Service 44, Service 11" style="rounded=0;whiteSpace=wrap;html=1;" vertex="1" parent="1">
          <mxGeometry x="580" y="470" width="230" height="30" as="geometry" />
        </mxCell>
        <mxCell id="WzCFIglIIp8xGvakGaZ_-57" value="Certification 2: Service 44, Service 11" style="rounded=0;whiteSpace=wrap;html=1;" vertex="1" parent="1">
          <mxGeometry x="580" y="510" width="230" height="30" as="geometry" />
        </mxCell>
        <mxCell id="WzCFIglIIp8xGvakGaZ_-58" value="&lt;font style=&quot;font-size: 20px;&quot;&gt;Certifications&lt;/font&gt;" style="text;html=1;align=center;verticalAlign=middle;whiteSpace=wrap;rounded=0;" vertex="1" parent="1">
          <mxGeometry x="600" y="320" width="60" height="30" as="geometry" />
        </mxCell>
        <mxCell id="WzCFIglIIp8xGvakGaZ_-59" value="&lt;font style=&quot;font-size: 20px;&quot;&gt;Certifications&lt;/font&gt;" style="text;html=1;align=center;verticalAlign=middle;whiteSpace=wrap;rounded=0;" vertex="1" parent="1">
          <mxGeometry x="760" y="360" width="60" height="30" as="geometry" />
        </mxCell>
        <mxCell id="WzCFIglIIp8xGvakGaZ_-60" value="&lt;font style=&quot;font-size: 20px;&quot;&gt;Add&lt;/font&gt;" style="rounded=0;whiteSpace=wrap;html=1;" vertex="1" parent="1">
          <mxGeometry x="890" y="405" width="100" height="40" as="geometry" />
        </mxCell>
        <mxCell id="WzCFIglIIp8xGvakGaZ_-62" style="edgeStyle=orthogonalEdgeStyle;rounded=0;orthogonalLoop=1;jettySize=auto;html=1;entryX=0.524;entryY=0;entryDx=0;entryDy=0;entryPerimeter=0;" edge="1" parent="1" source="WzCFIglIIp8xGvakGaZ_-30" target="WzCFIglIIp8xGvakGaZ_-53">
          <mxGeometry relative="1" as="geometry" />
        </mxCell>
        <mxCell id="WzCFIglIIp8xGvakGaZ_-63" value="&lt;span style=&quot;color: rgba(0, 0, 0, 0); font-family: monospace; font-size: 0px; text-align: start; background-color: rgb(236, 236, 236);&quot;&gt;%3CmxGraphModel%3E%3Croot%3E%3CmxCell%20id%3D%220%22%2F%3E%3CmxCell%20id%3D%221%22%20parent%3D%220%22%2F%3E%3CmxCell%20id%3D%222%22%20value%3D%22%26lt%3Bfont%20style%3D%26quot%3Bfont-size%3A%2015px%3B%26quot%3B%26gt%3BBusiness%26amp%3Bnbsp%3B%26lt%3B%2Ffont%26gt%3B%26lt%3Bdiv%26gt%3B%26lt%3Bfont%20style%3D%26quot%3Bfont-size%3A%2015px%3B%26quot%3B%26gt%3Bclicks%20%26quot%3BAdd%26quot%3B%26lt%3B%2Ffont%26gt%3B%26lt%3B%2Fdiv%26gt%3B%22%20style%3D%22edgeLabel%3Bhtml%3D1%3Balign%3Dcenter%3BverticalAlign%3Dmiddle%3Bresizable%3D0%3Bpoints%3D%5B%5D%3B%22%20vertex%3D%221%22%20connectable%3D%220%22%20parent%3D%221%22%3E%3CmxGeometry%20x%3D%22511%22%20y%3D%22298.57142857142856%22%20as%3D%22geometry%22%2F%3E%3C%2FmxCell%3E%3C%2Froot%3E%3C%2FmxGraphModel%3E&lt;/span&gt;&lt;span style=&quot;color: rgba(0, 0, 0, 0); font-family: monospace; font-size: 0px; text-align: start; background-color: rgb(236, 236, 236);&quot;&gt;%3CmxGraphModel%3E%3Croot%3E%3CmxCell%20id%3D%220%22%2F%3E%3CmxCell%20id%3D%221%22%20parent%3D%220%22%2F%3E%3CmxCell%20id%3D%222%22%20value%3D%22%26lt%3Bfont%20style%3D%26quot%3Bfont-size%3A%2015px%3B%26quot%3B%26gt%3BBusiness%26amp%3Bnbsp%3B%26lt%3B%2Ffont%26gt%3B%26lt%3Bdiv%26gt%3B%26lt%3Bfont%20style%3D%26quot%3Bfont-size%3A%2015px%3B%26quot%3B%26gt%3Bclicks%20%26quot%3BAdd%26quot%3B%26lt%3B%2Ffont%26gt%3B%26lt%3B%2Fdiv%26gt%3B%22%20style%3D%22edgeLabel%3Bhtml%3D1%3Balign%3Dcenter%3BverticalAlign%3Dmiddle%3Bresizable%3D0%3Bpoints%3D%5B%5D%3B%22%20vertex%3D%221%22%20connectable%3D%220%22%20parent%3D%221%22%3E%3CmxGeometry%20x%3D%22511%22%20y%3D%22298.57142857142856%22%20as%3D%22geometry%22%2F%3E%3C%2FmxCell%3E%3C%2Froot%3E%3C%2FmxGraphModel%3E&lt;/span&gt;" style="edgeLabel;html=1;align=center;verticalAlign=middle;resizable=0;points=[];" vertex="1" connectable="0" parent="WzCFIglIIp8xGvakGaZ_-62">
          <mxGeometry x="-0.1892" y="1" relative="1" as="geometry">
            <mxPoint as="offset" />
          </mxGeometry>
        </mxCell>
        <mxCell id="WzCFIglIIp8xGvakGaZ_-64" value="&lt;font style=&quot;font-size: 15px;&quot;&gt;Business&amp;nbsp;&lt;/font&gt;&lt;div&gt;&lt;font style=&quot;font-size: 15px;&quot;&gt;clicks &quot;Save&quot;&lt;/font&gt;&lt;/div&gt;" style="edgeLabel;html=1;align=center;verticalAlign=middle;resizable=0;points=[];" vertex="1" connectable="0" parent="1">
          <mxGeometry x="790" y="320.00142857142856" as="geometry" />
        </mxCell>
        <mxCell id="WzCFIglIIp8xGvakGaZ_-65" value="&lt;b&gt;New certification: Service X, Service Y&lt;/b&gt;" style="rounded=0;whiteSpace=wrap;html=1;" vertex="1" parent="1">
          <mxGeometry x="580" y="550" width="230" height="30" as="geometry" />
        </mxCell>
        <mxCell id="WzCFIglIIp8xGvakGaZ_-66" value="Certification 1: Service 1, Service 2..." style="rounded=0;whiteSpace=wrap;html=1;" vertex="1" parent="1">
          <mxGeometry x="20" y="390" width="230" height="30" as="geometry" />
        </mxCell>
        <mxCell id="WzCFIglIIp8xGvakGaZ_-67" value="Certification 2: Service 1, Service 5" style="rounded=0;whiteSpace=wrap;html=1;" vertex="1" parent="1">
          <mxGeometry x="20" y="430" width="230" height="30" as="geometry" />
        </mxCell>
        <mxCell id="WzCFIglIIp8xGvakGaZ_-68" value="Certification 3: Service 44, Service 11" style="rounded=0;whiteSpace=wrap;html=1;" vertex="1" parent="1">
          <mxGeometry x="20" y="470" width="230" height="30" as="geometry" />
        </mxCell>
        <mxCell id="WzCFIglIIp8xGvakGaZ_-69" value="Certification 2: Service 44, Service 11" style="rounded=0;whiteSpace=wrap;html=1;" vertex="1" parent="1">
          <mxGeometry x="20" y="510" width="230" height="30" as="geometry" />
        </mxCell>
      </root>
    </mxGraphModel>
  </diagram>
</mxfile>
